# xmcd
#
# Track frame offsets:
#	150
#	17736
#	33577
#	53268
#	71720
#	85925
#	96266
#	110862
#	120612
#	139049
#	155217
#	170663
#	188871
#	203830
#	220198
#	234681
#	244921
#	261116
#	278103
#	291592
#	304700
#
# Disc length: 4090 seconds
#
# Revision: 0
# Processed by: cddbd v1.4PL0 Copyright (c) Steve Scherf et al.
# Submitted via: audiograbber 1.80
#
DISCID=420ff815
DTITLE=Radio Andernach - Vom Allergemeinsten
DYEAR=1900
DGENRE=
TTITLE0=Altbierlied
TTITLE1=Brennend heißer Wüstensand
TTITLE2=Lewis 501
TTITLE3=Das gibt´s doch gar nicht
TTITLE4=Das bißchen Haushalt sagt mein Mann
TTITLE5=I am walking
TTITLE6=Money money money
TTITLE7=Let´s have a party
TTITLE8=It´s a hard life
TTITLE9=Highway to hell
TTITLE10=Daytona Race
TTITLE11=Kein Schwein ruft mich an
TTITLE12=Country roads
TTITLE13=An und für sich
TTITLE14=Busstop
TTITLE15=Männer
TTITLE16=Danger Zone
TTITLE17=Postman
TTITLE18=Wer soll das bezahlen
TTITLE19=Flieger grüß mir die Sonne
TTITLE20=Nachtrag
EXTD=
EXTT0=
EXTT1=
EXTT2=
EXTT3=
EXTT4=
EXTT5=
EXTT6=
EXTT7=
EXTT8=
EXTT9=
EXTT10=
EXTT11=
EXTT12=
EXTT13=
EXTT14=
EXTT15=
EXTT16=
EXTT17=
EXTT18=
EXTT19=
EXTT20=
PLAYORDER=
